<svg width="8" height="6" viewBox="0 0 8 6" fill="none" xmlns="http://www.w3.org/2000/svg">
<path d="M4.33801 5.60706C4.18865 5.6063 4.04134 5.57231 3.90676 5.50755C3.77217 5.44279 3.6537 5.34888 3.55992 5.23264L1.09695 2.24899C0.953024 2.06937 0.862457 1.85293 0.835564 1.62434C0.808671 1.39575 0.846533 1.1642 0.944837 0.956077C1.02456 0.775202 1.15467 0.621098 1.31962 0.512171C1.48456 0.403244 1.67738 0.344098 1.87503 0.341797H6.80098C6.99863 0.344098 7.19145 0.403244 7.35639 0.512171C7.52134 0.621098 7.65145 0.775202 7.73117 0.956077C7.82948 1.1642 7.86734 1.39575 7.84045 1.62434C7.81356 1.85293 7.72299 2.06937 7.57907 2.24899L5.11609 5.23264C5.02232 5.34888 4.90384 5.44279 4.76925 5.50755C4.63467 5.57231 4.48736 5.6063 4.33801 5.60706Z" fill="#FCC822"/>
</svg>
