<svg width="16" height="16" viewBox="0 0 18 18" fill="none" xmlns="http://www.w3.org/2000/svg">
<path d="M15.6825 6.38898L15.3895 6.2161C15.3439 6.18926 15.3216 6.17579 15.2996 6.16183C15.081 6.02301 14.8968 5.83122 14.7624 5.60176C14.7489 5.57867 14.7361 5.55446 14.71 5.50661C14.684 5.45882 14.6708 5.4346 14.6587 5.41063C14.5381 5.17191 14.4729 4.90587 14.469 4.6351C14.4686 4.60788 14.4687 4.58007 14.4696 4.52477L14.4753 4.16391C14.4845 3.58643 14.4891 3.2968 14.4125 3.03687C14.3445 2.80598 14.2308 2.59333 14.0789 2.41286C13.9072 2.20886 13.6696 2.06332 13.1938 1.77262L12.7986 1.53115C12.3241 1.24126 12.0868 1.09626 11.8349 1.04099C11.6121 0.992085 11.3821 0.994351 11.1601 1.0472C10.9095 1.10685 10.6752 1.25563 10.2067 1.55301L10.2041 1.55436L9.92092 1.73413C9.87615 1.76256 9.85348 1.77689 9.83104 1.79012C9.60833 1.92141 9.35971 1.994 9.10502 2.00267C9.07936 2.00355 9.05324 2.00355 9.00103 2.00355C8.94915 2.00355 8.92192 2.00355 8.8963 2.00267C8.64107 1.99397 8.39193 1.92098 8.16887 1.78914C8.14639 1.77586 8.12415 1.76141 8.07929 1.73285L7.79431 1.55146C7.32271 1.25126 7.08656 1.10094 6.83456 1.04099C6.61162 0.987951 6.38087 0.986483 6.15721 1.03602C5.90467 1.09194 5.6673 1.23802 5.19257 1.53016L5.19046 1.53115L4.80018 1.77133L4.79586 1.77413C4.3254 2.06364 4.08961 2.20875 3.91937 2.41191C3.7683 2.5922 3.65538 2.80452 3.5878 3.0348C3.51141 3.29508 3.51548 3.58533 3.52468 4.16553L3.5304 4.52589C3.53127 4.58045 3.53277 4.60757 3.53239 4.63441C3.52861 4.90573 3.46252 5.17231 3.34158 5.41145C3.32962 5.4351 3.31674 5.45876 3.291 5.506C3.26524 5.55327 3.25277 5.57678 3.23942 5.5996C3.10438 5.83028 2.91933 6.02319 2.6994 6.16224C2.67765 6.17599 2.65472 6.18922 2.60967 6.21569L2.32031 6.38572C1.83887 6.6686 1.5982 6.81017 1.42308 7.01163C1.26817 7.18986 1.15114 7.40126 1.0797 7.63149C0.998946 7.89175 0.999013 8.18358 1.00026 8.7672L1.00129 9.2442C1.00253 9.82392 1.00423 10.1136 1.08516 10.3721C1.15676 10.6008 1.27294 10.8109 1.42699 10.9881C1.60112 11.1883 1.83939 11.329 2.31718 11.6108L2.60397 11.78C2.65277 11.8088 2.67733 11.823 2.70087 11.838C2.91881 11.9772 3.10241 12.1695 3.23629 12.3989C3.25075 12.4237 3.26464 12.4494 3.2924 12.5008C3.31983 12.5516 3.33385 12.577 3.34654 12.6025C3.46392 12.8381 3.52677 13.0999 3.53105 13.3664C3.53152 13.3952 3.53112 13.4243 3.53019 13.4828L3.52468 13.8286C3.51541 14.4108 3.51138 14.7022 3.58822 14.9632C3.6562 15.1941 3.76983 15.4068 3.92171 15.5872C4.0934 15.7913 4.33141 15.9367 4.80721 16.2274L5.20233 16.4688C5.6768 16.7587 5.91394 16.9035 6.16584 16.9588C6.38868 17.0077 6.61878 17.0058 6.84082 16.953C7.09178 16.8932 7.32692 16.7439 7.79666 16.4457L8.07983 16.2659C8.12463 16.2375 8.14731 16.2232 8.16976 16.21C8.39246 16.0787 8.64084 16.0057 8.89552 15.9971C8.92119 15.9962 8.9473 15.9962 8.99951 15.9962C9.05184 15.9962 9.07792 15.9962 9.10365 15.9971C9.35888 16.0058 9.60877 16.079 9.83182 16.2108C9.85145 16.2224 9.87111 16.235 9.90564 16.257L10.2067 16.4486C10.6783 16.7488 10.914 16.8987 11.166 16.9586C11.3889 17.0117 11.6199 17.0138 11.8435 16.9643C12.096 16.9084 12.3339 16.762 12.8083 16.4701L13.2045 16.2263C13.6752 15.9366 13.9113 15.7913 14.0816 15.5881C14.2326 15.4078 14.3457 15.1956 14.4133 14.9653C14.4891 14.7069 14.4846 14.4189 14.4755 13.8471L14.4696 13.4741C14.4687 13.4195 14.4686 13.3924 14.469 13.3656C14.4728 13.0942 14.5378 12.8275 14.6587 12.5883C14.6706 12.5647 14.6836 12.5409 14.7093 12.4938C14.735 12.4465 14.7484 12.423 14.7617 12.4001C14.8968 12.1695 15.082 11.9764 15.3019 11.8373C15.3234 11.8237 15.3455 11.8107 15.3895 11.7849L15.391 11.7842L15.6804 11.6141C16.1618 11.3312 16.403 11.1895 16.5781 10.9881C16.733 10.8098 16.8499 10.5987 16.9213 10.3685C17.0016 10.1098 17.001 9.81964 16.9997 9.24284L16.9987 8.7556C16.9974 8.17588 16.9968 7.88626 16.9158 7.62776C16.8442 7.39908 16.7274 7.18891 16.5734 7.01176C16.3994 6.81172 16.1608 6.67098 15.6839 6.3897L15.6825 6.38898Z" stroke="black" stroke-width="2" stroke-linecap="round" stroke-linejoin="round"/>
<path d="M5.79901 9.00006C5.79901 10.8747 7.23225 12.3943 9.00025 12.3943C10.7683 12.3943 12.2015 10.8747 12.2015 9.00006C12.2015 7.12545 10.7683 5.60578 9.00025 5.60578C7.23225 5.60578 5.79901 7.12545 5.79901 9.00006Z" stroke="black" stroke-width="2" stroke-linecap="round" stroke-linejoin="round"/>
</svg>
